<?xml version="1.0" encoding="UTF-8" standalone="no"?>
<!-- Created with Inkscape (http://www.inkscape.org/) -->

<svg
   width="500"
   height="200"
   viewBox="0 0 132.29166 52.916669"
   version="1.1"
   id="svg5"
   inkscape:version="1.1.2 (0a00cf5339, 2022-02-04, custom)"
   sodipodi:docname="Lollipop_logo2.svg"
   xmlns:inkscape="http://www.inkscape.org/namespaces/inkscape"
   xmlns:sodipodi="http://sodipodi.sourceforge.net/DTD/sodipodi-0.dtd"
   xmlns:xlink="http://www.w3.org/1999/xlink"
   xmlns="http://www.w3.org/2000/svg"
   xmlns:svg="http://www.w3.org/2000/svg">
  <sodipodi:namedview
     id="namedview7"
     pagecolor="#ffffff"
     bordercolor="#666666"
     borderopacity="1.0"
     inkscape:pageshadow="2"
     inkscape:pageopacity="0.0"
     inkscape:pagecheckerboard="0"
     inkscape:document-units="px"
     showgrid="true"
     units="px"
     inkscape:zoom="1.4142136"
     inkscape:cx="293.09575"
     inkscape:cy="110.30865"
     inkscape:window-width="1904"
     inkscape:window-height="993"
     inkscape:window-x="-10"
     inkscape:window-y="22"
     inkscape:window-maximized="0"
     inkscape:current-layer="layer1"
     inkscape:snap-global="false">
    <inkscape:grid
       type="xygrid"
       id="grid24"
       spacingx="9.5250001"
       spacingy="9.5250001" />
  </sodipodi:namedview>
  <defs
     id="defs2">
    <linearGradient
       inkscape:collect="always"
       id="linearGradient14140">
      <stop
         style="stop-color:#ff5555;stop-opacity:1;"
         offset="0"
         id="stop14136" />
      <stop
         style="stop-color:#ff5555;stop-opacity:0;"
         offset="1"
         id="stop14138" />
    </linearGradient>
    <linearGradient
       inkscape:collect="always"
       xlink:href="#linearGradient14140"
       id="linearGradient14142"
       x1="80.79934"
       y1="43.801775"
       x2="117.84099"
       y2="43.801775"
       gradientUnits="userSpaceOnUse" />
  </defs>
  <g
     inkscape:label="Warstwa 1"
     inkscape:groupmode="layer"
     id="layer1">
    <path
       style="fill:none;stroke:#000000;stroke-width:0.372836;stroke-linecap:butt;stroke-linejoin:miter;stroke-miterlimit:4;stroke-dasharray:none;stroke-opacity:1"
       d="M 23.600138,5.3240491 C 13.732483,13.189803 8.9360575,20.584286 6.376486,27.770895"
       id="path1356"
       sodipodi:nodetypes="cc" />
    <path
       style="fill:none;stroke:#000000;stroke-width:0.372836;stroke-linecap:butt;stroke-linejoin:miter;stroke-miterlimit:4;stroke-dasharray:none;stroke-opacity:1"
       d="M 26.855217,7.3573886 C 20.883574,16.893683 15.168139,23.691848 9.5124302,29.851762"
       id="path1518"
       sodipodi:nodetypes="cc" />
    <path
       style="fill:none;stroke:#000000;stroke-width:0.372836;stroke-linecap:butt;stroke-linejoin:miter;stroke-miterlimit:4;stroke-dasharray:none;stroke-opacity:1"
       d="M 30.168287,24.289007 59.550389,43.301936 57.517594,46.368923 28.049545,27.040512"
       id="path1553"
       sodipodi:nodetypes="cccc" />
    <g
       id="g23162"
       transform="matrix(-0.80408804,0,0,0.86192417,79.85965,1.1253192)"
       style="stroke-width:1.03163167;stroke-miterlimit:4;stroke-dasharray:none">
      <ellipse
         style="fill:#f7d9f2;fill-opacity:1;fill-rule:evenodd;stroke:#000000;stroke-width:1.03163167;stroke-miterlimit:4;stroke-dasharray:none;stroke-dashoffset:0;stroke-opacity:1"
         id="path905"
         cx="78.403603"
         cy="19.270407"
         rx="18.838026"
         ry="16.09828" />
      <path
         style="fill:#f4e3d7;fill-opacity:1;fill-rule:evenodd;stroke:#000000;stroke-width:1.03163167;stroke-miterlimit:4;stroke-dasharray:none;stroke-dashoffset:0;stroke-opacity:1"
         d="M 86.178226,31.616849 C 78.668314,23.860767 73.003515,17.03492 67.592539,9.2218919 c -1.371804,-1.980778 -1.340284,-1.928744 -1.222806,-2.01893 0.224485,-0.172341 1.125936,-0.762109 1.520066,-0.994493 0.488747,-0.288175 1.944107,-1.022822 2.026246,-1.022822 0.0635,0 1.746869,1.28488 2.889706,2.20565 7.792261,6.2781491 13.286319,12.8081351 16.713153,19.8644811 0.402844,0.829521 1.229078,2.7022 1.490412,3.378064 l 0.08064,0.208559 -0.295368,0.228671 c -0.499686,0.386844 -1.215212,0.867719 -1.831528,1.230892 -0.62538,0.368513 -1.295723,0.718049 -1.377093,0.718049 -0.02701,0 -0.660499,-0.631424 -1.407741,-1.403164 z"
         id="path2169" />
      <path
         style="fill:#e3dbdb;fill-opacity:1;fill-rule:evenodd;stroke:#000000;stroke-width:1.03163167;stroke-miterlimit:4;stroke-dasharray:none;stroke-dashoffset:0;stroke-opacity:1"
         d="m 26.784346,50.538286 -1.061167,-1.51312 2.836911,-1.71399 c 1.560301,-0.942697 9.636449,-5.825769 17.946995,-10.851268 l 15.11008,-9.137278 0.371777,0.459932 c 0.204476,0.252963 0.713118,0.864965 1.13031,1.360005 l 0.758533,0.900071 -17.915808,10.964919 c -9.853695,6.030706 -17.960956,10.982678 -18.016135,11.004384 -0.05518,0.02169 -0.577854,-0.641441 -1.161496,-1.473655 z"
         id="path6518" />
      <path
         sodipodi:type="star"
         style="fill:#558dff;fill-rule:evenodd;stroke:#ff5555;stroke-width:3.89908038;stroke-miterlimit:4;stroke-dasharray:none;stroke-dashoffset:0;stroke-opacity:1"
         id="path13504"
         inkscape:flatsided="false"
         sodipodi:sides="4"
         sodipodi:cx="287.75"
         sodipodi:cy="38.25"
         sodipodi:r1="11.718041"
         sodipodi:r2="5.6974406"
         sodipodi:arg1="0.19321148"
         sodipodi:arg2="0.97860965"
         inkscape:rounded="0"
         inkscape:randomized="0"
         transform="matrix(0.26458333,0,0,0.26458333,3.1088541,8.0036457)"
         d="M 299.25,40.5 290.93018,42.977292 285.5,49.75 283.02271,41.430179 276.25,36 284.56982,33.522708 290,26.75 l 2.47729,8.319821 z" />
      <path
         sodipodi:type="star"
         style="fill:#558dff;fill-rule:evenodd;stroke:#ff5555;stroke-width:3.89908038;stroke-miterlimit:4;stroke-dasharray:none;stroke-dashoffset:0;stroke-opacity:1"
         id="path13506"
         inkscape:flatsided="false"
         sodipodi:sides="4"
         sodipodi:cx="314.25"
         sodipodi:cy="44"
         sodipodi:r1="10.752906"
         sodipodi:r2="5.2281814"
         sodipodi:arg1="1.8778421"
         sodipodi:arg2="2.6632402"
         inkscape:rounded="0"
         inkscape:randomized="0"
         transform="matrix(-0.25791835,0.0590124,-0.0590124,-0.25791835,166.92499,16.15324)"
         d="M 311,54.249999 309.60866,46.406622 304,40.75 311.84338,39.358658 317.5,33.750001 318.89134,41.593378 324.5,47.25 l -7.84338,1.391342 z" />
      <path
         sodipodi:type="star"
         style="fill:#558dff;fill-rule:evenodd;stroke:#ff5555;stroke-width:4.22829437;stroke-miterlimit:4;stroke-dasharray:none;stroke-dashoffset:0;stroke-opacity:1"
         id="path13588"
         inkscape:flatsided="false"
         sodipodi:sides="4"
         sodipodi:cx="314.25"
         sodipodi:cy="44"
         sodipodi:r1="10.752906"
         sodipodi:r2="5.2281814"
         sodipodi:arg1="1.8778421"
         sodipodi:arg2="2.6632402"
         inkscape:rounded="0"
         inkscape:randomized="0"
         transform="matrix(0.23695349,0.03257496,-0.03125968,0.24692352,13.795342,6.8122252)"
         d="M 311,54.249999 309.60866,46.406622 304,40.75 311.84338,39.358658 317.5,33.750001 318.89134,41.593378 324.5,47.25 l -7.84338,1.391342 z" />
      <path
         sodipodi:type="star"
         style="fill:#558dff;fill-rule:evenodd;stroke:#ff5555;stroke-width:3.89908038;stroke-miterlimit:4;stroke-dasharray:none;stroke-dashoffset:0;stroke-opacity:1"
         id="path13843"
         inkscape:flatsided="false"
         sodipodi:sides="4"
         sodipodi:cx="314.25"
         sodipodi:cy="44"
         sodipodi:r1="10.752906"
         sodipodi:r2="5.2281814"
         sodipodi:arg1="1.8778421"
         sodipodi:arg2="2.6632402"
         inkscape:rounded="0"
         inkscape:randomized="0"
         transform="matrix(-0.25791835,0.0590124,-0.0590124,-0.25791835,158.8552,6.2975111)"
         d="M 311,54.249999 309.60866,46.406622 304,40.75 311.84338,39.358658 317.5,33.750001 318.89134,41.593378 324.5,47.25 l -7.84338,1.391342 z" />
      <path
         sodipodi:type="star"
         style="fill:#558dff;fill-rule:evenodd;stroke:#ff5555;stroke-width:4.22829437;stroke-miterlimit:4;stroke-dasharray:none;stroke-dashoffset:0;stroke-opacity:1"
         id="path13927"
         inkscape:flatsided="false"
         sodipodi:sides="4"
         sodipodi:cx="314.25"
         sodipodi:cy="44"
         sodipodi:r1="9.326355"
         sodipodi:r2="5.2281814"
         sodipodi:arg1="1.8340907"
         sodipodi:arg2="2.6194888"
         inkscape:rounded="0"
         inkscape:randomized="0"
         transform="matrix(0.23695349,0.03257496,-0.03125968,0.24692352,-2.1458034,-11.576316)"
         d="m 311.8227,53.004948 -2.10434,-6.397629 -4.47331,-5.034622 6.39763,-2.104338 5.03462,-4.473307 2.10434,6.397629 4.47331,5.034622 -6.39763,2.104338 z" />
    </g>
    <text
       xml:space="preserve"
       style="font-size:14.11111107px;line-height:1.25;font-family:Montserrat;-inkscape-font-specification:Montserrat;fill:#ff5555;fill-opacity:1;stroke:#ff5555;stroke-width:0.264583;stroke-miterlimit:4;stroke-dasharray:none;stroke-opacity:1"
       x="38.828339"
       y="21.690325"
       id="text1690"><tspan
         sodipodi:role="line"
         id="tspan1688"
         style="fill:#ff5555;fill-opacity:1;stroke:#ff5555;stroke-width:0.264583;stroke-miterlimit:4;stroke-dasharray:none;stroke-opacity:1;font-size:14.11111107px"
         x="38.828339"
         y="21.690325">LOLLIPOP</tspan></text>
    <text
       xml:space="preserve"
       style="font-size:14.1111px;line-height:1.25;font-family:Montserrat;-inkscape-font-specification:Montserrat;fill:#558dff;fill-opacity:1;stroke:#558dff;stroke-width:0.264583;stroke-miterlimit:4;stroke-dasharray:none;stroke-opacity:1"
       x="64.199844"
       y="38.038086"
       id="text3542"><tspan
         sodipodi:role="line"
         id="tspan3540"
         style="font-size:14.1111px;fill:#558dff;fill-opacity:1;stroke:#558dff;stroke-width:0.264583;stroke-miterlimit:4;stroke-dasharray:none;stroke-opacity:1"
         x="64.199844"
         y="38.038086">SQUARE</tspan></text>
  </g>
</svg>
